solid
 facet normal  0.000000e+00  1.000000e+00 -0.000000e+00
   outer loop
     vertex  2.250000e+00  2.250000e+00  1.000000e-01
     vertex -2.250000e+00  2.250000e+00  1.000000e-01
     vertex -2.250000e+00  2.250000e+00  3.900000e+00
   endloop
 endfacet
 facet normal  0.000000e+00  1.000000e+00 -0.000000e+00
   outer loop
     vertex  2.250000e+00  2.250000e+00  1.000000e-01
     vertex -2.250000e+00  2.250000e+00  3.900000e+00
     vertex  2.250000e+00  2.250000e+00  3.900000e+00
   endloop
 endfacet
 facet normal  1.000000e+00  0.000000e+00  0.000000e+00
   outer loop
     vertex  2.250000e+00 -2.250000e+00  1.000000e-01
     vertex  2.250000e+00  2.250000e+00  1.000000e-01
     vertex  2.250000e+00  2.250000e+00  3.900000e+00
   endloop
 endfacet
 facet normal  1.000000e+00  0.000000e+00 -0.000000e+00
   outer loop
     vertex  2.250000e+00 -2.250000e+00  1.000000e-01
     vertex  2.250000e+00  2.250000e+00  3.900000e+00
     vertex  2.250000e+00 -2.250000e+00  3.900000e+00
   endloop
 endfacet
 facet normal  0.000000e+00 -1.000000e+00  0.000000e+00
   outer loop
     vertex -2.250000e+00 -2.250000e+00  1.000000e-01
     vertex  2.250000e+00 -2.250000e+00  1.000000e-01
     vertex  2.250000e+00 -2.250000e+00  3.900000e+00
   endloop
 endfacet
 facet normal  0.000000e+00 -1.000000e+00  0.000000e+00
   outer loop
     vertex -2.250000e+00 -2.250000e+00  1.000000e-01
     vertex  2.250000e+00 -2.250000e+00  3.900000e+00
     vertex -2.250000e+00 -2.250000e+00  3.900000e+00
   endloop
 endfacet
 facet normal -1.000000e+00  0.000000e+00  0.000000e+00
   outer loop
     vertex -2.250000e+00  2.250000e+00  1.000000e-01
     vertex -2.250000e+00 -2.250000e+00  1.000000e-01
     vertex -2.250000e+00 -2.250000e+00  3.900000e+00
   endloop
 endfacet
 facet normal -1.000000e+00  0.000000e+00  0.000000e+00
   outer loop
     vertex -2.250000e+00  2.250000e+00  1.000000e-01
     vertex -2.250000e+00 -2.250000e+00  3.900000e+00
     vertex -2.250000e+00  2.250000e+00  3.900000e+00
   endloop
 endfacet
 facet normal  0.000000e+00  0.000000e+00 -1.000000e+00
   outer loop
     vertex  2.250000e+00 -2.250000e+00  1.000000e-01
     vertex -2.250000e+00 -2.250000e+00  1.000000e-01
     vertex  2.250000e+00  2.250000e+00  1.000000e-01
   endloop
 endfacet
 facet normal  0.000000e+00  0.000000e+00 -1.000000e+00
   outer loop
     vertex -2.250000e+00 -2.250000e+00  1.000000e-01
     vertex -2.250000e+00  2.250000e+00  1.000000e-01
     vertex  2.250000e+00  2.250000e+00  1.000000e-01
   endloop
 endfacet
 facet normal -0.000000e+00  0.000000e+00  1.000000e+00
   outer loop
     vertex  2.250000e+00  2.250000e+00  3.900000e+00
     vertex -2.250000e+00 -2.250000e+00  3.900000e+00
     vertex  2.250000e+00 -2.250000e+00  3.900000e+00
   endloop
 endfacet
 facet normal  0.000000e+00  0.000000e+00  1.000000e+00
   outer loop
     vertex  2.250000e+00  2.250000e+00  3.900000e+00
     vertex -2.250000e+00  2.250000e+00  3.900000e+00
     vertex -2.250000e+00 -2.250000e+00  3.900000e+00
   endloop
 endfacet
 facet normal -1.000000e+00 -0.000000e+00 -0.000000e+00
   outer loop
     vertex -3.300000e+00  2.000000e+00  1.000000e-01
     vertex -3.300000e+00  2.000000e+00  0.000000e+00
     vertex -3.300000e+00  1.200000e+00  1.000000e-01
   endloop
 endfacet
 facet normal -1.000000e+00  0.000000e+00  0.000000e+00
   outer loop
     vertex -3.300000e+00  2.000000e+00  0.000000e+00
     vertex -3.300000e+00  1.200000e+00  0.000000e+00
     vertex -3.300000e+00  1.200000e+00  1.000000e-01
   endloop
 endfacet
 facet normal  1.000000e+00 -0.000000e+00  0.000000e+00
   outer loop
     vertex -1.950000e+00  1.200000e+00  1.000000e-01
     vertex -1.950000e+00  2.000000e+00  0.000000e+00
     vertex -1.950000e+00  2.000000e+00  1.000000e-01
   endloop
 endfacet
 facet normal  1.000000e+00 -0.000000e+00  0.000000e+00
   outer loop
     vertex -1.950000e+00  1.200000e+00  1.000000e-01
     vertex -1.950000e+00  1.200000e+00  0.000000e+00
     vertex -1.950000e+00  2.000000e+00  0.000000e+00
   endloop
 endfacet
 facet normal  0.000000e+00 -1.000000e+00  0.000000e+00
   outer loop
     vertex -3.300000e+00  1.200000e+00  0.000000e+00
     vertex -1.950000e+00  1.200000e+00  0.000000e+00
     vertex -1.950000e+00  1.200000e+00  1.000000e-01
   endloop
 endfacet
 facet normal  0.000000e+00 -1.000000e+00  0.000000e+00
   outer loop
     vertex -3.300000e+00  1.200000e+00  1.000000e-01
     vertex -3.300000e+00  1.200000e+00  0.000000e+00
     vertex -1.950000e+00  1.200000e+00  1.000000e-01
   endloop
 endfacet
 facet normal  0.000000e+00  1.000000e+00  0.000000e+00
   outer loop
     vertex -1.950000e+00  2.000000e+00  1.000000e-01
     vertex -1.950000e+00  2.000000e+00  0.000000e+00
     vertex -3.300000e+00  2.000000e+00  0.000000e+00
   endloop
 endfacet
 facet normal  0.000000e+00  1.000000e+00 -0.000000e+00
   outer loop
     vertex -1.950000e+00  2.000000e+00  1.000000e-01
     vertex -3.300000e+00  2.000000e+00  0.000000e+00
     vertex -3.300000e+00  2.000000e+00  1.000000e-01
   endloop
 endfacet
 facet normal  0.000000e+00  0.000000e+00 -1.000000e+00
   outer loop
     vertex -3.300000e+00  1.200000e+00  0.000000e+00
     vertex -3.300000e+00  2.000000e+00  0.000000e+00
     vertex -1.950000e+00  2.000000e+00  0.000000e+00
   endloop
 endfacet
 facet normal  0.000000e+00  0.000000e+00 -1.000000e+00
   outer loop
     vertex -1.950000e+00  1.200000e+00  0.000000e+00
     vertex -3.300000e+00  1.200000e+00  0.000000e+00
     vertex -1.950000e+00  2.000000e+00  0.000000e+00
   endloop
 endfacet
 facet normal  0.000000e+00  0.000000e+00  1.000000e+00
   outer loop
     vertex -1.950000e+00  2.000000e+00  1.000000e-01
     vertex -3.300000e+00  2.000000e+00  1.000000e-01
     vertex -3.300000e+00  1.200000e+00  1.000000e-01
   endloop
 endfacet
 facet normal -0.000000e+00  0.000000e+00  1.000000e+00
   outer loop
     vertex -1.950000e+00  2.000000e+00  1.000000e-01
     vertex -3.300000e+00  1.200000e+00  1.000000e-01
     vertex -1.950000e+00  1.200000e+00  1.000000e-01
   endloop
 endfacet
 facet normal -1.000000e+00 -0.000000e+00 -0.000000e+00
   outer loop
     vertex  1.950000e+00  2.000000e+00  1.000000e-01
     vertex  1.950000e+00  2.000000e+00  0.000000e+00
     vertex  1.950000e+00  1.200000e+00  1.000000e-01
   endloop
 endfacet
 facet normal -1.000000e+00  0.000000e+00  0.000000e+00
   outer loop
     vertex  1.950000e+00  2.000000e+00  0.000000e+00
     vertex  1.950000e+00  1.200000e+00  0.000000e+00
     vertex  1.950000e+00  1.200000e+00  1.000000e-01
   endloop
 endfacet
 facet normal  1.000000e+00 -0.000000e+00  0.000000e+00
   outer loop
     vertex  3.300000e+00  1.200000e+00  1.000000e-01
     vertex  3.300000e+00  2.000000e+00  0.000000e+00
     vertex  3.300000e+00  2.000000e+00  1.000000e-01
   endloop
 endfacet
 facet normal  1.000000e+00 -0.000000e+00  0.000000e+00
   outer loop
     vertex  3.300000e+00  1.200000e+00  1.000000e-01
     vertex  3.300000e+00  1.200000e+00  0.000000e+00
     vertex  3.300000e+00  2.000000e+00  0.000000e+00
   endloop
 endfacet
 facet normal  0.000000e+00 -1.000000e+00  0.000000e+00
   outer loop
     vertex  1.950000e+00  1.200000e+00  0.000000e+00
     vertex  3.300000e+00  1.200000e+00  0.000000e+00
     vertex  3.300000e+00  1.200000e+00  1.000000e-01
   endloop
 endfacet
 facet normal  0.000000e+00 -1.000000e+00  0.000000e+00
   outer loop
     vertex  1.950000e+00  1.200000e+00  1.000000e-01
     vertex  1.950000e+00  1.200000e+00  0.000000e+00
     vertex  3.300000e+00  1.200000e+00  1.000000e-01
   endloop
 endfacet
 facet normal  0.000000e+00  1.000000e+00  0.000000e+00
   outer loop
     vertex  3.300000e+00  2.000000e+00  1.000000e-01
     vertex  3.300000e+00  2.000000e+00  0.000000e+00
     vertex  1.950000e+00  2.000000e+00  0.000000e+00
   endloop
 endfacet
 facet normal  0.000000e+00  1.000000e+00 -0.000000e+00
   outer loop
     vertex  3.300000e+00  2.000000e+00  1.000000e-01
     vertex  1.950000e+00  2.000000e+00  0.000000e+00
     vertex  1.950000e+00  2.000000e+00  1.000000e-01
   endloop
 endfacet
 facet normal  0.000000e+00  0.000000e+00 -1.000000e+00
   outer loop
     vertex  1.950000e+00  1.200000e+00  0.000000e+00
     vertex  1.950000e+00  2.000000e+00  0.000000e+00
     vertex  3.300000e+00  2.000000e+00  0.000000e+00
   endloop
 endfacet
 facet normal  0.000000e+00  0.000000e+00 -1.000000e+00
   outer loop
     vertex  3.300000e+00  1.200000e+00  0.000000e+00
     vertex  1.950000e+00  1.200000e+00  0.000000e+00
     vertex  3.300000e+00  2.000000e+00  0.000000e+00
   endloop
 endfacet
 facet normal  0.000000e+00  0.000000e+00  1.000000e+00
   outer loop
     vertex  3.300000e+00  2.000000e+00  1.000000e-01
     vertex  1.950000e+00  2.000000e+00  1.000000e-01
     vertex  1.950000e+00  1.200000e+00  1.000000e-01
   endloop
 endfacet
 facet normal -0.000000e+00  0.000000e+00  1.000000e+00
   outer loop
     vertex  3.300000e+00  2.000000e+00  1.000000e-01
     vertex  1.950000e+00  1.200000e+00  1.000000e-01
     vertex  3.300000e+00  1.200000e+00  1.000000e-01
   endloop
 endfacet
 facet normal -1.000000e+00 -0.000000e+00 -0.000000e+00
   outer loop
     vertex -3.300000e+00 -1.200000e+00  1.000000e-01
     vertex -3.300000e+00 -1.200000e+00  0.000000e+00
     vertex -3.300000e+00 -2.000000e+00  1.000000e-01
   endloop
 endfacet
 facet normal -1.000000e+00  0.000000e+00  0.000000e+00
   outer loop
     vertex -3.300000e+00 -1.200000e+00  0.000000e+00
     vertex -3.300000e+00 -2.000000e+00  0.000000e+00
     vertex -3.300000e+00 -2.000000e+00  1.000000e-01
   endloop
 endfacet
 facet normal  1.000000e+00 -0.000000e+00  0.000000e+00
   outer loop
     vertex -1.950000e+00 -2.000000e+00  1.000000e-01
     vertex -1.950000e+00 -1.200000e+00  0.000000e+00
     vertex -1.950000e+00 -1.200000e+00  1.000000e-01
   endloop
 endfacet
 facet normal  1.000000e+00 -0.000000e+00  0.000000e+00
   outer loop
     vertex -1.950000e+00 -2.000000e+00  1.000000e-01
     vertex -1.950000e+00 -2.000000e+00  0.000000e+00
     vertex -1.950000e+00 -1.200000e+00  0.000000e+00
   endloop
 endfacet
 facet normal  0.000000e+00 -1.000000e+00  0.000000e+00
   outer loop
     vertex -3.300000e+00 -2.000000e+00  0.000000e+00
     vertex -1.950000e+00 -2.000000e+00  0.000000e+00
     vertex -1.950000e+00 -2.000000e+00  1.000000e-01
   endloop
 endfacet
 facet normal  0.000000e+00 -1.000000e+00  0.000000e+00
   outer loop
     vertex -3.300000e+00 -2.000000e+00  1.000000e-01
     vertex -3.300000e+00 -2.000000e+00  0.000000e+00
     vertex -1.950000e+00 -2.000000e+00  1.000000e-01
   endloop
 endfacet
 facet normal  0.000000e+00  1.000000e+00  0.000000e+00
   outer loop
     vertex -1.950000e+00 -1.200000e+00  1.000000e-01
     vertex -1.950000e+00 -1.200000e+00  0.000000e+00
     vertex -3.300000e+00 -1.200000e+00  0.000000e+00
   endloop
 endfacet
 facet normal  0.000000e+00  1.000000e+00 -0.000000e+00
   outer loop
     vertex -1.950000e+00 -1.200000e+00  1.000000e-01
     vertex -3.300000e+00 -1.200000e+00  0.000000e+00
     vertex -3.300000e+00 -1.200000e+00  1.000000e-01
   endloop
 endfacet
 facet normal  0.000000e+00  0.000000e+00 -1.000000e+00
   outer loop
     vertex -3.300000e+00 -2.000000e+00  0.000000e+00
     vertex -3.300000e+00 -1.200000e+00  0.000000e+00
     vertex -1.950000e+00 -1.200000e+00  0.000000e+00
   endloop
 endfacet
 facet normal  0.000000e+00  0.000000e+00 -1.000000e+00
   outer loop
     vertex -1.950000e+00 -2.000000e+00  0.000000e+00
     vertex -3.300000e+00 -2.000000e+00  0.000000e+00
     vertex -1.950000e+00 -1.200000e+00  0.000000e+00
   endloop
 endfacet
 facet normal  0.000000e+00  0.000000e+00  1.000000e+00
   outer loop
     vertex -1.950000e+00 -1.200000e+00  1.000000e-01
     vertex -3.300000e+00 -1.200000e+00  1.000000e-01
     vertex -3.300000e+00 -2.000000e+00  1.000000e-01
   endloop
 endfacet
 facet normal -0.000000e+00  0.000000e+00  1.000000e+00
   outer loop
     vertex -1.950000e+00 -1.200000e+00  1.000000e-01
     vertex -3.300000e+00 -2.000000e+00  1.000000e-01
     vertex -1.950000e+00 -2.000000e+00  1.000000e-01
   endloop
 endfacet
 facet normal -1.000000e+00 -0.000000e+00 -0.000000e+00
   outer loop
     vertex  1.950000e+00 -1.200000e+00  1.000000e-01
     vertex  1.950000e+00 -1.200000e+00  0.000000e+00
     vertex  1.950000e+00 -2.000000e+00  1.000000e-01
   endloop
 endfacet
 facet normal -1.000000e+00  0.000000e+00  0.000000e+00
   outer loop
     vertex  1.950000e+00 -1.200000e+00  0.000000e+00
     vertex  1.950000e+00 -2.000000e+00  0.000000e+00
     vertex  1.950000e+00 -2.000000e+00  1.000000e-01
   endloop
 endfacet
 facet normal  1.000000e+00 -0.000000e+00  0.000000e+00
   outer loop
     vertex  3.300000e+00 -2.000000e+00  1.000000e-01
     vertex  3.300000e+00 -1.200000e+00  0.000000e+00
     vertex  3.300000e+00 -1.200000e+00  1.000000e-01
   endloop
 endfacet
 facet normal  1.000000e+00 -0.000000e+00  0.000000e+00
   outer loop
     vertex  3.300000e+00 -2.000000e+00  1.000000e-01
     vertex  3.300000e+00 -2.000000e+00  0.000000e+00
     vertex  3.300000e+00 -1.200000e+00  0.000000e+00
   endloop
 endfacet
 facet normal  0.000000e+00 -1.000000e+00  0.000000e+00
   outer loop
     vertex  1.950000e+00 -2.000000e+00  0.000000e+00
     vertex  3.300000e+00 -2.000000e+00  0.000000e+00
     vertex  3.300000e+00 -2.000000e+00  1.000000e-01
   endloop
 endfacet
 facet normal  0.000000e+00 -1.000000e+00  0.000000e+00
   outer loop
     vertex  1.950000e+00 -2.000000e+00  1.000000e-01
     vertex  1.950000e+00 -2.000000e+00  0.000000e+00
     vertex  3.300000e+00 -2.000000e+00  1.000000e-01
   endloop
 endfacet
 facet normal  0.000000e+00  1.000000e+00  0.000000e+00
   outer loop
     vertex  3.300000e+00 -1.200000e+00  1.000000e-01
     vertex  3.300000e+00 -1.200000e+00  0.000000e+00
     vertex  1.950000e+00 -1.200000e+00  0.000000e+00
   endloop
 endfacet
 facet normal  0.000000e+00  1.000000e+00 -0.000000e+00
   outer loop
     vertex  3.300000e+00 -1.200000e+00  1.000000e-01
     vertex  1.950000e+00 -1.200000e+00  0.000000e+00
     vertex  1.950000e+00 -1.200000e+00  1.000000e-01
   endloop
 endfacet
 facet normal  0.000000e+00  0.000000e+00 -1.000000e+00
   outer loop
     vertex  1.950000e+00 -2.000000e+00  0.000000e+00
     vertex  1.950000e+00 -1.200000e+00  0.000000e+00
     vertex  3.300000e+00 -1.200000e+00  0.000000e+00
   endloop
 endfacet
 facet normal  0.000000e+00  0.000000e+00 -1.000000e+00
   outer loop
     vertex  3.300000e+00 -2.000000e+00  0.000000e+00
     vertex  1.950000e+00 -2.000000e+00  0.000000e+00
     vertex  3.300000e+00 -1.200000e+00  0.000000e+00
   endloop
 endfacet
 facet normal  0.000000e+00  0.000000e+00  1.000000e+00
   outer loop
     vertex  3.300000e+00 -1.200000e+00  1.000000e-01
     vertex  1.950000e+00 -1.200000e+00  1.000000e-01
     vertex  1.950000e+00 -2.000000e+00  1.000000e-01
   endloop
 endfacet
 facet normal -0.000000e+00  0.000000e+00  1.000000e+00
   outer loop
     vertex  3.300000e+00 -1.200000e+00  1.000000e-01
     vertex  1.950000e+00 -2.000000e+00  1.000000e-01
     vertex  3.300000e+00 -2.000000e+00  1.000000e-01
   endloop
 endfacet
endsolid
